<?xml version="1.0" standalone="no"?>
<!DOCTYPE svg PUBLIC "-//W3C//DTD SVG 20010904//EN"
 "http://www.w3.org/TR/2001/REC-SVG-20010904/DTD/svg10.dtd">
<svg version="1.0" xmlns="http://www.w3.org/2000/svg"
 width="260.000000pt" height="260.000000pt" viewBox="0 0 260.000000 260.000000"
 preserveAspectRatio="xMidYMid meet">
<metadata>
Created by potrace 1.14, written by Peter Selinger 2001-2017
</metadata>
<g transform="translate(0.000000,260.000000) scale(0.100000,-0.100000)"
fill="#000000" stroke="none">
<path d="M1265 2586 c-106 -27 -244 -116 -341 -218 -28 -29 -82 -100 -121
-158 -68 -100 -305 -444 -373 -540 -119 -169 -389 -564 -387 -566 1 -2 103 -4
225 -6 137 -1 227 -6 232 -13 4 -5 25 -48 45 -95 21 -47 45 -103 55 -125 16
-36 137 -316 212 -490 17 -38 34 -74 38 -80 4 -5 11 -21 15 -35 11 -35 74
-118 125 -164 92 -83 217 -113 341 -82 57 15 85 27 164 70 87 47 198 155 274
267 123 179 190 274 200 286 6 7 11 15 11 18 0 3 5 11 10 18 6 7 46 64 90 127
43 63 83 120 89 127 6 7 11 16 11 22 0 5 3 11 8 13 8 3 5 -1 237 338 43 63 81
117 85 120 3 3 16 22 29 43 l23 37 -129 1 c-70 0 -173 1 -227 2 l-99 1 -29 65
c-16 37 -35 80 -43 96 -7 17 -46 104 -85 195 -39 90 -80 183 -90 205 -10 22
-32 74 -50 115 -65 150 -81 182 -119 233 -113 154 -264 215 -426 173z m10
-1040 c71 -162 94 -213 132 -296 14 -30 34 -75 45 -100 10 -25 26 -50 34 -57
13 -10 9 -24 -34 -108 l-48 -97 -28 63 c-16 35 -40 89 -53 119 -14 30 -40 89
-58 130 -18 41 -44 100 -58 130 -13 30 -37 83 -52 118 -15 34 -34 62 -41 62
-8 0 -14 2 -14 5 0 17 96 193 102 187 4 -4 36 -74 73 -156z"/>
</g>
</svg>
